<?xml version="1.0" encoding="UTF-8" standalone="no"?>
<!DOCTYPE svg PUBLIC "-//W3C//DTD SVG 1.1//EN"
 "http://www.w3.org/Graphics/SVG/1.1/DTD/svg11.dtd">
<!-- Generated by graphviz version 2.50.0 (20211204.2007)
 -->
<!-- Title: map Pages: 1 -->
<svg width="1841pt" height="152pt"
 viewBox="0.00 0.00 1841.10 152.00" xmlns="http://www.w3.org/2000/svg" xmlns:xlink="http://www.w3.org/1999/xlink">
<g id="graph0" class="graph" transform="scale(1 1) rotate(0) translate(4 148)">
<title>map</title>
<polygon fill="white" stroke="transparent" points="-4,4 -4,-148 1837.1,-148 1837.1,4 -4,4"/>
<!-- Start -->
<g id="node1" class="node">
<title>Start</title>
<ellipse fill="lightgrey" stroke="black" cx="1803.21" cy="-72" rx="29.8" ry="29.8"/>
<text text-anchor="middle" x="1803.21" y="-68.3" font-family="Helvetica,sans-Serif" font-size="14.00">Start</text>
</g>
<!-- RedRoom -->
<g id="node3" class="node">
<title>RedRoom</title>
<polygon fill="#ff0000" stroke="black" points="1737.26,-90 1606.97,-90 1573.45,-54 1703.75,-54 1737.26,-90"/>
<text text-anchor="middle" x="1655.36" y="-68.3" font-family="Helvetica,sans-Serif" font-size="14.00" fill="white">Red Room</text>
</g>
<!-- Start&#45;&gt;RedRoom -->
<g id="edge1" class="edge">
<title>Start&#45;&gt;RedRoom</title>
<path fill="none" stroke="black" d="M1773.04,-72C1758,-72 1739.01,-72 1720.74,-72"/>
</g>
<!-- End -->
<g id="node2" class="node">
<title>End</title>
<ellipse fill="lightgrey" stroke="black" cx="27.3" cy="-72" rx="27.1" ry="27.1"/>
<text text-anchor="middle" x="27.3" y="-68.3" font-family="Helvetica,sans-Serif" font-size="14.00">End</text>
</g>
<!-- Junction1 -->
<g id="node16" class="node">
<title>Junction1</title>
<ellipse fill="#dddddd" stroke="black" cx="1533.9" cy="-72" rx="3.5" ry="3.5"/>
</g>
<!-- RedRoom&#45;&gt;Junction1 -->
<g id="edge2" class="edge">
<title>RedRoom&#45;&gt;Junction1</title>
<path fill="none" stroke="black" d="M1590.09,-72C1567.11,-72 1545.04,-72 1537.57,-72"/>
</g>
<!-- IndigoRoom -->
<g id="node4" class="node">
<title>IndigoRoom</title>
<polygon fill="Indigo" stroke="black" points="1494.25,-140 1344.42,-140 1305.88,-104 1455.7,-104 1494.25,-140"/>
<text text-anchor="middle" x="1400.06" y="-118.3" font-family="Helvetica,sans-Serif" font-size="14.00" fill="white">Indigo Room</text>
</g>
<!-- GreenRoom -->
<g id="node5" class="node">
<title>GreenRoom</title>
<polygon fill="#00ff00" stroke="black" points="1267.66,-144 1117.84,-144 1079.29,-108 1229.12,-108 1267.66,-144"/>
<text text-anchor="middle" x="1173.48" y="-122.3" font-family="Helvetica,sans-Serif" font-size="14.00">Green Room</text>
</g>
<!-- IndigoRoom&#45;&gt;GreenRoom -->
<g id="edge6" class="edge">
<title>IndigoRoom&#45;&gt;GreenRoom</title>
<path fill="none" stroke="black" d="M1326.46,-123.29C1301.08,-123.75 1272.6,-124.25 1247.22,-124.7"/>
</g>
<!-- Junction2 -->
<g id="node17" class="node">
<title>Junction2</title>
<ellipse fill="#dddddd" stroke="black" cx="1037.73" cy="-126" rx="3.5" ry="3.5"/>
</g>
<!-- GreenRoom&#45;&gt;Junction2 -->
<g id="edge7" class="edge">
<title>GreenRoom&#45;&gt;Junction2</title>
<path fill="none" stroke="black" d="M1098.56,-126C1073.43,-126 1049.64,-126 1041.6,-126"/>
</g>
<!-- GoldRoom -->
<g id="node6" class="node">
<title>GoldRoom</title>
<polygon fill="#ffd700" stroke="black" points="1259.01,-90 1122.95,-90 1087.95,-54 1224,-54 1259.01,-90"/>
<text text-anchor="middle" x="1173.48" y="-68.3" font-family="Helvetica,sans-Serif" font-size="14.00">Gold Room</text>
</g>
<!-- Junction3 -->
<g id="node18" class="node">
<title>Junction3</title>
<ellipse fill="#dddddd" stroke="black" cx="1037.73" cy="-72" rx="3.5" ry="3.5"/>
</g>
<!-- GoldRoom&#45;&gt;Junction3 -->
<g id="edge10" class="edge">
<title>GoldRoom&#45;&gt;Junction3</title>
<path fill="none" stroke="black" d="M1105.21,-72C1077.63,-72 1050.14,-72 1041.5,-72"/>
</g>
<!-- SilverRoom -->
<g id="node7" class="node">
<title>SilverRoom</title>
<polygon fill="#c0c0c0" stroke="black" points="1490.62,-40 1346.56,-40 1309.51,-4 1453.56,-4 1490.62,-40"/>
<text text-anchor="middle" x="1400.06" y="-18.3" font-family="Helvetica,sans-Serif" font-size="14.00">Silver Room</text>
</g>
<!-- YellowRoom -->
<g id="node8" class="node">
<title>YellowRoom</title>
<polygon fill="#ffff00" stroke="black" points="1269.97,-36 1116.47,-36 1076.98,0 1230.48,0 1269.97,-36"/>
<text text-anchor="middle" x="1173.48" y="-14.3" font-family="Helvetica,sans-Serif" font-size="14.00">Yellow Room</text>
</g>
<!-- SilverRoom&#45;&gt;YellowRoom -->
<g id="edge13" class="edge">
<title>SilverRoom&#45;&gt;YellowRoom</title>
<path fill="none" stroke="black" d="M1326.46,-20.71C1302.62,-20.28 1276.04,-19.81 1251.87,-19.38"/>
</g>
<!-- Junction4 -->
<g id="node19" class="node">
<title>Junction4</title>
<ellipse fill="#dddddd" stroke="black" cx="1037.73" cy="-18" rx="3.5" ry="3.5"/>
</g>
<!-- YellowRoom&#45;&gt;Junction4 -->
<g id="edge14" class="edge">
<title>YellowRoom&#45;&gt;Junction4</title>
<path fill="none" stroke="black" d="M1096.61,-18C1072.09,-18 1049.2,-18 1041.48,-18"/>
</g>
<!-- OrangeRoom -->
<g id="node9" class="node">
<title>OrangeRoom</title>
<polygon fill="#ffa500" stroke="black" points="998.19,-144 836.05,-144 794.34,-108 956.48,-108 998.19,-144"/>
<text text-anchor="middle" x="896.26" y="-122.3" font-family="Helvetica,sans-Serif" font-size="14.00">Orange Room</text>
</g>
<!-- WhiteRoom -->
<g id="node10" class="node">
<title>WhiteRoom</title>
<polygon fill="#ffffff" stroke="black" points="755.42,-144 609.92,-144 572.49,-108 717.99,-108 755.42,-144"/>
<text text-anchor="middle" x="663.96" y="-122.3" font-family="Helvetica,sans-Serif" font-size="14.00">White Room</text>
</g>
<!-- OrangeRoom&#45;&gt;WhiteRoom -->
<g id="edge16" class="edge">
<title>OrangeRoom&#45;&gt;WhiteRoom</title>
<path fill="none" stroke="black" d="M815.04,-126C789.59,-126 761.64,-126 736.82,-126"/>
</g>
<!-- Junction5 -->
<g id="node20" class="node">
<title>Junction5</title>
<ellipse fill="#dddddd" stroke="black" cx="530.12" cy="-72" rx="3.5" ry="3.5"/>
</g>
<!-- WhiteRoom&#45;&gt;Junction5 -->
<g id="edge18" class="edge">
<title>WhiteRoom&#45;&gt;Junction5</title>
<path fill="none" stroke="black" d="M591.21,-107.89C583.79,-105.24 576.46,-102.28 569.62,-99 554.6,-91.81 539.07,-78.93 533.38,-74"/>
</g>
<!-- BlackRoom -->
<g id="node11" class="node">
<title>BlackRoom</title>
<polygon fill="#444444" stroke="black" points="753.61,-90 610.99,-90 574.31,-54 716.92,-54 753.61,-90"/>
<text text-anchor="middle" x="663.96" y="-68.3" font-family="Helvetica,sans-Serif" font-size="14.00" fill="white">Black Room</text>
</g>
<!-- BlackRoom&#45;&gt;Junction5 -->
<g id="edge19" class="edge">
<title>BlackRoom&#45;&gt;Junction5</title>
<path fill="none" stroke="black" d="M592.41,-72C566.45,-72 541.45,-72 533.63,-72"/>
</g>
<!-- CopperRoom -->
<g id="node12" class="node">
<title>CopperRoom</title>
<polygon fill="#b87333" stroke="black" points="998.19,-36 836.05,-36 794.34,0 956.48,0 998.19,-36"/>
<text text-anchor="middle" x="896.26" y="-14.3" font-family="Helvetica,sans-Serif" font-size="14.00" fill="white">Copper Room</text>
</g>
<!-- BrownRoom -->
<g id="node13" class="node">
<title>BrownRoom</title>
<polygon fill="#a52a2a" stroke="black" points="758.14,-36 608.32,-36 569.78,0 719.6,0 758.14,-36"/>
<text text-anchor="middle" x="663.96" y="-14.3" font-family="Helvetica,sans-Serif" font-size="14.00" fill="white">Brown Room</text>
</g>
<!-- CopperRoom&#45;&gt;BrownRoom -->
<g id="edge17" class="edge">
<title>CopperRoom&#45;&gt;BrownRoom</title>
<path fill="none" stroke="black" d="M815.04,-18C790.37,-18 763.35,-18 739.11,-18"/>
</g>
<!-- BrownRoom&#45;&gt;Junction5 -->
<g id="edge20" class="edge">
<title>BrownRoom&#45;&gt;Junction5</title>
<path fill="none" stroke="black" d="M603.61,-31.97C592.07,-35.57 580.27,-39.9 569.62,-45 554.6,-52.19 539.07,-65.07 533.38,-70"/>
</g>
<!-- AzureRoom -->
<g id="node14" class="node">
<title>AzureRoom</title>
<polygon fill="#007fff" stroke="black" points="490.6,-90 345.1,-90 307.67,-54 453.17,-54 490.6,-90"/>
<text text-anchor="middle" x="399.14" y="-68.3" font-family="Helvetica,sans-Serif" font-size="14.00" fill="white">Azure Room</text>
</g>
<!-- VioletRoom -->
<g id="node15" class="node">
<title>VioletRoom</title>
<polygon fill="#8a2be2" stroke="black" points="271.68,-90 127.62,-90 90.57,-54 234.62,-54 271.68,-90"/>
<text text-anchor="middle" x="181.12" y="-68.3" font-family="Helvetica,sans-Serif" font-size="14.00" fill="white">Violet Room</text>
</g>
<!-- AzureRoom&#45;&gt;VioletRoom -->
<g id="edge22" class="edge">
<title>AzureRoom&#45;&gt;VioletRoom</title>
<path fill="none" stroke="black" d="M326.21,-72C302.77,-72 276.76,-72 253.37,-72"/>
</g>
<!-- VioletRoom&#45;&gt;End -->
<g id="edge23" class="edge">
<title>VioletRoom&#45;&gt;End</title>
<path fill="none" stroke="black" d="M108.66,-72C89.43,-72 69.82,-72 54.78,-72"/>
</g>
<!-- Junction1&#45;&gt;IndigoRoom -->
<g id="edge3" class="edge">
<title>Junction1&#45;&gt;IndigoRoom</title>
<path fill="none" stroke="black" d="M1530.15,-73.04C1519.65,-77.03 1481.08,-91.65 1448.81,-103.89"/>
</g>
<!-- Junction1&#45;&gt;GoldRoom -->
<g id="edge4" class="edge">
<title>Junction1&#45;&gt;GoldRoom</title>
<path fill="none" stroke="black" d="M1530.23,-72C1507,-72 1338.34,-72 1241.82,-72"/>
</g>
<!-- Junction1&#45;&gt;SilverRoom -->
<g id="edge5" class="edge">
<title>Junction1&#45;&gt;SilverRoom</title>
<path fill="none" stroke="black" d="M1530.15,-70.96C1519.65,-66.97 1481.08,-52.35 1448.81,-40.11"/>
</g>
<!-- Junction2&#45;&gt;OrangeRoom -->
<g id="edge8" class="edge">
<title>Junction2&#45;&gt;OrangeRoom</title>
<path fill="none" stroke="black" d="M1033.82,-126C1025.84,-126 1002.54,-126 977.39,-126"/>
</g>
<!-- Junction2&#45;&gt;Junction3 -->
<g id="edge9" class="edge">
<title>Junction2&#45;&gt;Junction3</title>
<path fill="none" stroke="black" d="M1037.73,-122.47C1037.73,-106.91 1037.73,-91.35 1037.73,-75.8"/>
</g>
<!-- Junction3&#45;&gt;BlackRoom -->
<g id="edge11" class="edge">
<title>Junction3&#45;&gt;BlackRoom</title>
<path fill="none" stroke="black" d="M1033.95,-72C1009.93,-72 835.88,-72 735.64,-72"/>
</g>
<!-- Junction3&#45;&gt;Junction4 -->
<g id="edge12" class="edge">
<title>Junction3&#45;&gt;Junction4</title>
<path fill="none" stroke="black" d="M1037.73,-68.47C1037.73,-52.91 1037.73,-37.35 1037.73,-21.8"/>
</g>
<!-- Junction4&#45;&gt;CopperRoom -->
<g id="edge15" class="edge">
<title>Junction4&#45;&gt;CopperRoom</title>
<path fill="none" stroke="black" d="M1033.82,-18C1025.84,-18 1002.54,-18 977.39,-18"/>
</g>
<!-- Junction5&#45;&gt;AzureRoom -->
<g id="edge21" class="edge">
<title>Junction5&#45;&gt;AzureRoom</title>
<path fill="none" stroke="black" d="M526.42,-72C518.83,-72 496.22,-72 472.19,-72"/>
</g>
</g>
</svg>
