<?xml version="1.0" encoding="UTF-8" standalone="no"?>
<!DOCTYPE svg PUBLIC "-//W3C//DTD SVG 1.1//EN"
 "http://www.w3.org/Graphics/SVG/1.1/DTD/svg11.dtd">
<!-- Generated by graphviz version 2.50.0 (20211204.2007)
 -->
<!-- Title: map Pages: 1 -->
<svg width="1732pt" height="152pt"
 viewBox="0.00 0.00 1732.29 152.00" xmlns="http://www.w3.org/2000/svg" xmlns:xlink="http://www.w3.org/1999/xlink">
<g id="graph0" class="graph" transform="scale(1 1) rotate(0) translate(4 148)">
<title>map</title>
<polygon fill="white" stroke="transparent" points="-4,4 -4,-148 1728.29,-148 1728.29,4 -4,4"/>
<!-- Start -->
<g id="node1" class="node">
<title>Start</title>
<ellipse fill="lightgrey" stroke="black" cx="1696.35" cy="-72" rx="27.9" ry="27.9"/>
<text text-anchor="middle" x="1696.35" y="-68.3" font-family="Times New Roman,serif" font-size="14.00">Start</text>
</g>
<!-- RedRoom -->
<g id="node3" class="node">
<title>RedRoom</title>
<polygon fill="#ff0000" stroke="black" points="1632.18,-90 1512.77,-90 1482.05,-54 1601.46,-54 1632.18,-90"/>
<text text-anchor="middle" x="1557.12" y="-68.3" font-family="Times New Roman,serif" font-size="14.00" fill="white">Red Room</text>
</g>
<!-- Start&#45;&gt;RedRoom -->
<g id="edge1" class="edge">
<title>Start&#45;&gt;RedRoom</title>
<path fill="none" stroke="black" d="M1668.23,-72C1653.55,-72 1634.8,-72 1616.96,-72"/>
</g>
<!-- End -->
<g id="node2" class="node">
<title>End</title>
<ellipse fill="lightgrey" stroke="black" cx="25.35" cy="-72" rx="25.2" ry="25.2"/>
<text text-anchor="middle" x="25.35" y="-68.3" font-family="Times New Roman,serif" font-size="14.00">End</text>
</g>
<!-- Junction1 -->
<g id="node16" class="node">
<title>Junction1</title>
<ellipse fill="#dddddd" stroke="black" cx="1442.33" cy="-72" rx="3.5" ry="3.5"/>
</g>
<!-- RedRoom&#45;&gt;Junction1 -->
<g id="edge2" class="edge">
<title>RedRoom&#45;&gt;Junction1</title>
<path fill="none" stroke="black" d="M1497.08,-72C1474.91,-72 1453.29,-72 1445.96,-72"/>
</g>
<!-- BlueRoom -->
<g id="node4" class="node">
<title>BlueRoom</title>
<polygon fill="#0000ff" stroke="black" points="1396.4,-140 1274.75,-140 1243.46,-104 1365.11,-104 1396.4,-140"/>
<text text-anchor="middle" x="1319.93" y="-118.3" font-family="Times New Roman,serif" font-size="14.00" fill="white">Blue Room</text>
</g>
<!-- GreenRoom -->
<g id="node5" class="node">
<title>GreenRoom</title>
<polygon fill="#00ff00" stroke="black" points="1195.12,-144 1060.5,-144 1025.87,-108 1160.49,-108 1195.12,-144"/>
<text text-anchor="middle" x="1110.49" y="-122.3" font-family="Times New Roman,serif" font-size="14.00">Green Room</text>
</g>
<!-- BlueRoom&#45;&gt;GreenRoom -->
<g id="edge6" class="edge">
<title>BlueRoom&#45;&gt;GreenRoom</title>
<path fill="none" stroke="black" d="M1260.04,-123.14C1234.05,-123.64 1203.41,-124.23 1176.72,-124.74"/>
</g>
<!-- Junction2 -->
<g id="node17" class="node">
<title>Junction2</title>
<ellipse fill="#dddddd" stroke="black" cx="980.46" cy="-126" rx="3.5" ry="3.5"/>
</g>
<!-- GreenRoom&#45;&gt;Junction2 -->
<g id="edge7" class="edge">
<title>GreenRoom&#45;&gt;Junction2</title>
<path fill="none" stroke="black" d="M1042.85,-126C1017.09,-126 991.9,-126 984,-126"/>
</g>
<!-- GoldRoom -->
<g id="node6" class="node">
<title>GoldRoom</title>
<polygon fill="#ffd700" stroke="black" points="1190.59,-90 1063.18,-90 1030.4,-54 1157.81,-54 1190.59,-90"/>
<text text-anchor="middle" x="1110.49" y="-68.3" font-family="Times New Roman,serif" font-size="14.00">Gold Room</text>
</g>
<!-- Junction3 -->
<g id="node18" class="node">
<title>Junction3</title>
<ellipse fill="#dddddd" stroke="black" cx="980.46" cy="-72" rx="3.5" ry="3.5"/>
</g>
<!-- GoldRoom&#45;&gt;Junction3 -->
<g id="edge10" class="edge">
<title>GoldRoom&#45;&gt;Junction3</title>
<path fill="none" stroke="black" d="M1046.6,-72C1019.79,-72 992.72,-72 984.2,-72"/>
</g>
<!-- SilverRoom -->
<g id="node7" class="node">
<title>SilverRoom</title>
<polygon fill="#c0c0c0" stroke="black" points="1402.74,-40 1271.01,-40 1237.12,-4 1368.85,-4 1402.74,-40"/>
<text text-anchor="middle" x="1319.93" y="-18.3" font-family="Times New Roman,serif" font-size="14.00">Silver Room</text>
</g>
<!-- YellowRoom -->
<g id="node8" class="node">
<title>YellowRoom</title>
<polygon fill="#ffff00" stroke="black" points="1201.05,-36 1056.99,-36 1019.94,0 1163.99,0 1201.05,-36"/>
<text text-anchor="middle" x="1110.49" y="-14.3" font-family="Times New Roman,serif" font-size="14.00">Yellow Room</text>
</g>
<!-- SilverRoom&#45;&gt;YellowRoom -->
<g id="edge13" class="edge">
<title>SilverRoom&#45;&gt;YellowRoom</title>
<path fill="none" stroke="black" d="M1252.72,-20.72C1230.91,-20.3 1206.53,-19.83 1184.25,-19.4"/>
</g>
<!-- Junction4 -->
<g id="node19" class="node">
<title>Junction4</title>
<ellipse fill="#dddddd" stroke="black" cx="980.46" cy="-18" rx="3.5" ry="3.5"/>
</g>
<!-- YellowRoom&#45;&gt;Junction4 -->
<g id="edge14" class="edge">
<title>YellowRoom&#45;&gt;Junction4</title>
<path fill="none" stroke="black" d="M1038.37,-18C1014.42,-18 991.82,-18 984.19,-18"/>
</g>
<!-- OrangeRoom -->
<g id="node9" class="node">
<title>OrangeRoom</title>
<polygon fill="#ffa500" stroke="black" points="939.04,-144 793.54,-144 756.11,-108 901.61,-108 939.04,-144"/>
<text text-anchor="middle" x="847.58" y="-122.3" font-family="Times New Roman,serif" font-size="14.00">Orange Room</text>
</g>
<!-- WhiteRoom -->
<g id="node10" class="node">
<title>WhiteRoom</title>
<polygon fill="#ffffff" stroke="black" points="714.19,-144 579.57,-144 544.94,-108 679.56,-108 714.19,-144"/>
<text text-anchor="middle" x="629.57" y="-122.3" font-family="Times New Roman,serif" font-size="14.00">White Room</text>
</g>
<!-- OrangeRoom&#45;&gt;WhiteRoom -->
<g id="edge16" class="edge">
<title>OrangeRoom&#45;&gt;WhiteRoom</title>
<path fill="none" stroke="black" d="M774.65,-126C749.61,-126 721.65,-126 697.07,-126"/>
</g>
<!-- Junction5 -->
<g id="node20" class="node">
<title>Junction5</title>
<ellipse fill="#dddddd" stroke="black" cx="501.44" cy="-72" rx="3.5" ry="3.5"/>
</g>
<!-- WhiteRoom&#45;&gt;Junction5 -->
<g id="edge18" class="edge">
<title>WhiteRoom&#45;&gt;Junction5</title>
<path fill="none" stroke="black" d="M562.15,-107.97C554.87,-105.28 547.66,-102.29 540.94,-99 525.98,-91.68 510.42,-78.88 504.71,-73.98"/>
</g>
<!-- BlackRoom -->
<g id="node11" class="node">
<title>BlackRoom</title>
<polygon fill="#444444" stroke="black" points="712.38,-90 580.64,-90 546.75,-54 678.49,-54 712.38,-90"/>
<text text-anchor="middle" x="629.57" y="-68.3" font-family="Times New Roman,serif" font-size="14.00" fill="white">Black Room</text>
</g>
<!-- BlackRoom&#45;&gt;Junction5 -->
<g id="edge19" class="edge">
<title>BlackRoom&#45;&gt;Junction5</title>
<path fill="none" stroke="black" d="M563.66,-72C538.06,-72 512.88,-72 504.98,-72"/>
</g>
<!-- CopperRoom -->
<g id="node12" class="node">
<title>CopperRoom</title>
<polygon fill="#b87333" stroke="black" points="940.85,-36 792.47,-36 754.3,0 902.68,0 940.85,-36"/>
<text text-anchor="middle" x="847.58" y="-14.3" font-family="Times New Roman,serif" font-size="14.00" fill="white">Copper Room</text>
</g>
<!-- BrownRoom -->
<g id="node13" class="node">
<title>BrownRoom</title>
<polygon fill="#a52a2a" stroke="black" points="718.31,-36 577.14,-36 540.82,0 681.99,0 718.31,-36"/>
<text text-anchor="middle" x="629.57" y="-14.3" font-family="Times New Roman,serif" font-size="14.00" fill="white">Brown Room</text>
</g>
<!-- CopperRoom&#45;&gt;BrownRoom -->
<g id="edge17" class="edge">
<title>CopperRoom&#45;&gt;BrownRoom</title>
<path fill="none" stroke="black" d="M773.14,-18C749.66,-18 723.74,-18 700.51,-18"/>
</g>
<!-- BrownRoom&#45;&gt;Junction5 -->
<g id="edge20" class="edge">
<title>BrownRoom&#45;&gt;Junction5</title>
<path fill="none" stroke="black" d="M572.86,-32.29C562.04,-35.86 550.95,-40.1 540.94,-45 525.98,-52.32 510.42,-65.12 504.71,-70.02"/>
</g>
<!-- AzureRoom -->
<g id="node14" class="node">
<title>AzureRoom</title>
<polygon fill="#007fff" stroke="black" points="461.75,-90 327.14,-90 292.51,-54 427.12,-54 461.75,-90"/>
<text text-anchor="middle" x="377.13" y="-68.3" font-family="Times New Roman,serif" font-size="14.00" fill="white">Azure Room</text>
</g>
<!-- VioletRoom -->
<g id="node15" class="node">
<title>VioletRoom</title>
<polygon fill="#8a2be2" stroke="black" points="256.13,-90 121.51,-90 86.88,-54 221.5,-54 256.13,-90"/>
<text text-anchor="middle" x="171.51" y="-68.3" font-family="Times New Roman,serif" font-size="14.00" fill="white">Violet Room</text>
</g>
<!-- AzureRoom&#45;&gt;VioletRoom -->
<g id="edge22" class="edge">
<title>AzureRoom&#45;&gt;VioletRoom</title>
<path fill="none" stroke="black" d="M309.74,-72C287.11,-72 261.81,-72 239.16,-72"/>
</g>
<!-- VioletRoom&#45;&gt;End -->
<g id="edge23" class="edge">
<title>VioletRoom&#45;&gt;End</title>
<path fill="none" stroke="black" d="M103.91,-72C85.03,-72 65.64,-72 50.97,-72"/>
</g>
<!-- Junction1&#45;&gt;BlueRoom -->
<g id="edge3" class="edge">
<title>Junction1&#45;&gt;BlueRoom</title>
<path fill="none" stroke="black" d="M1438.82,-73.04C1429.23,-77.03 1394.01,-91.65 1364.54,-103.89"/>
</g>
<!-- Junction1&#45;&gt;GoldRoom -->
<g id="edge4" class="edge">
<title>Junction1&#45;&gt;GoldRoom</title>
<path fill="none" stroke="black" d="M1438.48,-72C1415.78,-72 1262.94,-72 1174.48,-72"/>
</g>
<!-- Junction1&#45;&gt;SilverRoom -->
<g id="edge5" class="edge">
<title>Junction1&#45;&gt;SilverRoom</title>
<path fill="none" stroke="black" d="M1438.82,-70.96C1429.23,-66.97 1394.01,-52.35 1364.54,-40.11"/>
</g>
<!-- Junction2&#45;&gt;OrangeRoom -->
<g id="edge8" class="edge">
<title>Junction2&#45;&gt;OrangeRoom</title>
<path fill="none" stroke="black" d="M976.73,-126C968.91,-126 945.42,-126 920.65,-126"/>
</g>
<!-- Junction2&#45;&gt;Junction3 -->
<g id="edge9" class="edge">
<title>Junction2&#45;&gt;Junction3</title>
<path fill="none" stroke="black" d="M980.46,-122.47C980.46,-106.91 980.46,-91.35 980.46,-75.8"/>
</g>
<!-- Junction3&#45;&gt;BlackRoom -->
<g id="edge11" class="edge">
<title>Junction3&#45;&gt;BlackRoom</title>
<path fill="none" stroke="black" d="M976.86,-72C954.22,-72 789.62,-72 695.73,-72"/>
</g>
<!-- Junction3&#45;&gt;Junction4 -->
<g id="edge12" class="edge">
<title>Junction3&#45;&gt;Junction4</title>
<path fill="none" stroke="black" d="M980.46,-68.47C980.46,-52.91 980.46,-37.35 980.46,-21.8"/>
</g>
<!-- Junction4&#45;&gt;CopperRoom -->
<g id="edge15" class="edge">
<title>Junction4&#45;&gt;CopperRoom</title>
<path fill="none" stroke="black" d="M976.73,-18C969.06,-18 946.3,-18 922.04,-18"/>
</g>
<!-- Junction5&#45;&gt;AzureRoom -->
<g id="edge21" class="edge">
<title>Junction5&#45;&gt;AzureRoom</title>
<path fill="none" stroke="black" d="M497.89,-72C490.48,-72 468.01,-72 444.5,-72"/>
</g>
</g>
</svg>
